

<svg id="fb8c802d-af6e-4b39-b9ec-132f8b651701" data-name="Layer 1" xmlns="http://www.w3.org/2000/svg" xmlns:xlink="http://www.w3.org/1999/xlink" width="100%" height="100%" viewBox="0 0 865.76 682.89">



<path d="M179.18,554.86s2.65,6.35-1.81,7.49c0,0-13.18,4.29-24.32-3,0,0-9.86-7.28-15-7.14,0,0-15.47.59-8.76-9.28,0,0,2.74,4.44,10.55,6,0,0,3.72-.17,14.29,8,0,0,12.51,8.09,23.09,1.6C177.22,558.52,179.3,558.09,179.18,554.86Z" fill="#2f2e41" data-secondary="true"/>

<path d="M148.33,537.36s-1.8-4.69,0-6.15c0,0-4.83,1.37-11.67-1.79a5.55,5.55,0,0,0-6,.68s-1,4.38,2.8,4.11a14,14,0,0,1,4,2.73,6.79,6.79,0,0,0,3.17,2.23c1.33.28,3.07.38,4.08-.71C144.68,538.46,145.49,537.71,148.33,537.36Z" fill="#f9b499"/>

<path d="M107.08,548.53s1.7,5.5-1.15,8.34c0,0-4.07,3.06-4.88,6.11C101.05,563,99.2,552.27,107.08,548.53Z" fill="#2f2e41" data-secondary="true"/>

<path d="M81.41,582.48a13.16,13.16,0,0,0,12.17.59c10.13-4.48,8-14.74,7.89-15.37,0,3.87-1,5.25-1,5.25-7.32,16.07-20.14,6.51-20.14,6.51A9.14,9.14,0,0,1,77,572.13h0C75.78,577.53,78.45,580.67,81.41,582.48Z" fill="#2f2e41" data-secondary="true"/>

<path d="M107.26,533.37s2.74,7.43-1.54,9.06c0,0-14.32,4.11-19-3.15,0,0-3-2.88.51-7.5C87.23,531.78,94.24,538.33,107.26,533.37Z" fill="#f9b499"/>

<path d="M204,253.85l-11.77,6.41a27,27,0,0,0-6.37,4.83c-3.12,3.21-7.76,8.07-8.39,9.31,0,0-1.36-19.53-3.67-35.8h2a1.88,1.88,0,0,0,1.34-.56,3.44,3.44,0,0,1,2.47-1.17,1.1,1.1,0,0,0,.81-.29c.91-.84,3.64-2.9,9.48-3.79Z" fill="#2f2e41" data-primary="true"/>

<path d="M204,253.85l-11.77,6.41a27,27,0,0,0-6.37,4.83c-3.12,3.21-7.76,8.07-8.39,9.31,0,0-1.36-19.53-3.67-35.8h2a1.88,1.88,0,0,0,1.34-.56,3.44,3.44,0,0,1,2.47-1.17,1.1,1.1,0,0,0,.81-.29c.91-.84,3.64-2.9,9.48-3.79Z" opacity="0.2"/>

<path d="M214.24,245.9l0-4.14-3,3.91A6.61,6.61,0,0,0,214.24,245.9Z" fill="#2f2e41" data-primary="true"/>

<path d="M214.24,245.9l0-4.14-3,3.91A6.61,6.61,0,0,0,214.24,245.9Z" opacity="0.3"/>

<path d="M174.15,363.3s5.95,7.49,1.67,18.78c0,0-2.74,18.92-6.71,32,0,0-4,18.93-4,25.64,0,0,.61,14.65-5.19,24.11,0,0-2.13,34.49-6.1,41.51,0,0,0,7.32-2.44,9.76,0,0,3.05,5.19,0,7.94,0,0,1.22,7.32-4.27,8.54,0,0-3.52.92-10.46-1.83,0,0-3.28-2.14-6,.31a7.29,7.29,0,0,1,0-6.72,13,13,0,0,1-.82-6.41s.35-53.1,6.84-65.31c0,0,1.75-7,0-12.51l-2.06-28.5A245.3,245.3,0,0,0,118.45,452s1.26,6.95-1.29,11.76a19.72,19.72,0,0,0-2.34,8.1c-.46,8.31-1.56,23.81-3.61,30.79a14.56,14.56,0,0,0-1.15,7.48s-2.11,5.56-1.35,10.17c0,0,1.15,3.45-1.15,4.6,0,0,3.65,6.71-1.15,9s-15.34,2.49-19.18-2.11c0,0,1-4.22,0-6.53,0,0-1.15-2.11,0-6.52,0,0-.38-40.09,2.49-49.87A23.91,23.91,0,0,1,90.78,463a3.68,3.68,0,0,0,.23-2.33c-.23-.82-.11-2.15,1.21-4.23,0,0,1.92-6.9,1.15-10.93a8,8,0,0,1,1.15-5.56s4.41-24,3.45-32.8c0,0-2.59-34.82,12.61-46.47a15,15,0,0,0,5.47.72l30.35,15,4.18-12.08,9.2,10.36,4-3.6S165.16,370.72,174.15,363.3Z" fill="#2f2e41" data-secondary="true"/>

<path d="M158.36,236.11c2.31-.21,5.76,1.1,7.61,1.9a1.71,1.71,0,0,0,1.72-.13c1.51-1.19,6.08.72,6.08.72s4.57,24.78,3.56,45.36c0,0-2,16.92-3.44,25.14a13,13,0,0,0-.14,3.36c.53,6,2.18,26,1.57,35.51,0,0,3,5.32,1.29,8.06l.17,6.19a1.26,1.26,0,0,1-1.24,1.29,3.62,3.62,0,0,0-3,1.55s-5.68,4.78-8.7,5.93l-4,3.6-9.2-10.36-4.18,12.08-30.35-15a13.86,13.86,0,0,1-5.47-.72s2.74-16.69,2.59-27.19c0,0-1.15-19-1.72-21.86l1.48-22.45s1.73-6.9.19-12.27c0,0,5.18-22.23-17.23-30.49,0,0,0,0,0,0,.3,0,3.33-.33,11.86-3.81,0,0,6.61-3,10.58-3.7a8.46,8.46,0,0,0,4-1.81,8.67,8.67,0,0,0,1.76-2Z" fill="#2f2e41" data-primary="true"/>

<path d="M154.16,225.89l.59,9.44a54,54,0,0,1-6.33,7.48s-.58,1.3,0,6.19c0,0,.72,6.61-1.44,7.48,0,0-2-7.05-1.37-11.29,0,0,.12-2.57-4-3.43,0,0-11.46-4.34-14.77-11.46,0,0,3.36-11.41-.67-18.48,0,0,.8.57,1.17-1,0,0,2.16.91,2.86.61C130.2,211.43,139.21,231.11,154.16,225.89Z" fill="#f9b499"/>

<path d="M140.71,254.33c.54-2.35,2-7.37,4.9-9.14,0,0,.29-2.61-4-3.43,0,0-10.27-3.44-14.77-11.46,0,0-3.91,1.25-2.72,4.69a228.44,228.44,0,0,0,15.49,19.6A.64.64,0,0,0,140.71,254.33Z" fill="#2f2e41" data-primary="true"/>

<path d="M140.71,254.33c.54-2.35,2-7.37,4.9-9.14,0,0,.29-2.61-4-3.43,0,0-10.27-3.44-14.77-11.46,0,0-3.91,1.25-2.72,4.69a228.44,228.44,0,0,0,15.49,19.6A.64.64,0,0,0,140.71,254.33Z" fill="#fff" opacity="0.2"/>

<path d="M154.5,231.35l4,3.64s-1.51,15.26-3.23,17.18l-7.06-7.88s-.15-1,1.23-2.53l5.33-6.43Z" fill="#2f2e41" data-primary="true"/>

<path d="M154.5,231.35l4,3.64s-1.51,15.26-3.23,17.18l-7.06-7.88s-.15-1,1.23-2.53l5.33-6.43Z" fill="#fff" opacity="0.2"/>

<path d="M214.24,245.9a.14.14,0,0,0-.15-.24c-1.33.42-4.81.73-9.49-4.93a26.51,26.51,0,0,0-7.19-5.74l-4.92-4.69-2.65,2.49s3.66,15.76,10.22,18.79c0,0,3.56,3.48,8.05,3.29a1.68,1.68,0,0,0,1.19-.63,8.62,8.62,0,0,0,1.85-4.81Z" fill="#2f2e41" data-primary="true"/>

<path d="M214.24,245.9a.14.14,0,0,0-.15-.24c-1.33.42-4.81.73-9.49-4.93a26.51,26.51,0,0,0-7.19-5.74l-4.92-4.69-2.65,2.49s3.66,15.76,10.22,18.79c0,0,3.56,3.48,8.05,3.29a1.68,1.68,0,0,0,1.19-.63,8.62,8.62,0,0,0,1.85-4.81Z" fill="#fff" opacity="0.2"/>

<path d="M107.54,329.09a155.26,155.26,0,0,1,5.95,38.09s2.57,11.09,5.79,14.15a13.05,13.05,0,0,0,4.27,3.92,4.47,4.47,0,0,1,2.14,2.78,29.82,29.82,0,0,1,.66,3.75l3,10.79a.64.64,0,0,1-.48.8c-1.4.28-3.43.13-4.81-4.36l-3-5.63s0,8.36,1.44,11.58c0,0,2.9,6.42,0,5.62,0,0-2.4-.64-4-4.34a4.93,4.93,0,0,1-5.63-1,5.69,5.69,0,0,1-3.86-1.93,5,5,0,0,1-3.86-3.54,91.9,91.9,0,0,1-2.41-20.09s-11.57-31.66-13.34-46.45c0,0-2.09.16-2.41-6.11C87,327.16,97.9,323.46,107.54,329.09Z" fill="#f9b499"/>

<path d="M107.54,329.09s2.74,2.12,2.25-3.12c0,0,3.48-1.88,2.25-5.5a2.93,2.93,0,0,0-1.72-1.79c-3.37-1.33-13.5-5.62-23.35-2.61,0,0-1.29,1.13.64,3.54,0,0-2.57,5.46-.64,7.55A27,27,0,0,1,107.54,329.09Z" fill="#2f2e41" data-primary="true"/>

<path d="M107.54,329.09s2.74,2.12,2.25-3.12c0,0,3.48-1.88,2.25-5.5a2.93,2.93,0,0,0-1.72-1.79c-3.37-1.33-13.5-5.62-23.35-2.61,0,0-1.29,1.13.64,3.54,0,0-2.57,5.46-.64,7.55A27,27,0,0,1,107.54,329.09Z" fill="#fff" opacity="0.2"/>

<path d="M95.89,246.36s-6.35,1.4-8.44,21.17c0,0-2.73,9-1.93,17.2,0,0-.81,17.29.92,24.5a21.61,21.61,0,0,1,.53,4.94v1.9s8.19-2.81,22.74,2.37a23.83,23.83,0,0,0,1.74-6.86l1.48-22.45s1.76-6.64.19-12.27C113.12,276.86,118.31,253.8,95.89,246.36Z" fill="#2f2e41" data-primary="true"/>

<path d="M95.89,246.36s-6.35,1.4-8.44,21.17c0,0-2.73,9-1.93,17.2,0,0-.81,17.29.92,24.5a21.61,21.61,0,0,1,.53,4.94v1.9s8.19-2.81,22.74,2.37a23.83,23.83,0,0,0,1.74-6.86l1.48-22.45s1.76-6.64.19-12.27C113.12,276.86,118.31,253.8,95.89,246.36Z" opacity="0.2"/>

<path d="M133.46,278.67c-11.23,0-13.47-3-13.91-3.95a.06.06,0,0,0-.12,0l-.85,19.31a1.38,1.38,0,0,0,.61,1.23c2.37,1.64,6.24,3.89,7.63,4.69a1.75,1.75,0,0,0,1.12.21c5.47-.84,8-2.05,10.27-2.33a1.41,1.41,0,0,0,1.23-1.14c.9-5,1.75-18,1.93-20.92a.09.09,0,0,0-.17,0C140.69,276.71,139,278.66,133.46,278.67Z" opacity="0.2"/>

<path d="M77,572.13a9.14,9.14,0,0,0,3.33,7.33S93.11,589,100.43,573c0,0,1-1.38,1-5.25v0a28.65,28.65,0,0,0-.42-4.7s-.72-11.18,6-14.44l-.32-6.7s-12.2,3.25-20-2.55c0,0-3.58,4.17-3.38,12.91,0,0-.2,7.13-3,11.6C80.29,563.79,77.08,567.61,77,572.13Z" fill="#2f2e41" data-primary="true"/>

<path d="M157.24,533.4c-1.08-2-3.42-5.36-6.6-4.46,0,0-1.11,1.86-2.31,2.27,0,0-1.57,1.29,0,6.15a7.55,7.55,0,0,0-3.71.71s-3.39,2.88-7.19-1.13c0,0-2.32-2.25-4-2.73,0,0-2.12,0-2.55-1.18,0,0-3.15,8.75-1.29,11,0,0,2.28,4.44,9.7,5.18a14.9,14.9,0,0,1,5.69,1.82,66,66,0,0,1,9.18,6.14s13.58,8,23.29,1.49a3.78,3.78,0,0,0,1.25-5.05c-.79-1.32-2.39-2.76-5.54-3.87,0,0-2.86-.78-5.43-4.75a86.82,86.82,0,0,0-8.71-9.37A7.92,7.92,0,0,1,157.24,533.4Z" fill="#2f2e41" data-primary="true"/>

<path d="M168.25,545.74s-3.3,1.21-4.72,3.43a.42.42,0,0,1-.54.16c-1.91-.9-11.2-5.58-14.66-12,0,0-1.81-4.59,0-6.15a4.06,4.06,0,0,0,2.31-2.27s3.51-1.36,6.6,4.46a8.37,8.37,0,0,0,1.81,2.26,62,62,0,0,1,7,7.27Z" fill="#2f2e41" data-primary="true"/>

<path d="M168.25,545.74s-3.3,1.21-4.72,3.43a.42.42,0,0,1-.54.16c-1.91-.9-11.2-5.58-14.66-12,0,0-1.81-4.59,0-6.15a4.75,4.75,0,0,0,2.31-2.27s3.51-1.36,6.6,4.46a8.37,8.37,0,0,0,1.81,2.26,62,62,0,0,1,7,7.27Z" opacity="0.2"/>

<path d="M166,542.93s-4.13,1.91-5.93,4.47a3.36,3.36,0,0,1-2.6,1.55c-1.24,0-2.5-.54-1.87-3.22,0,0,2.66-5.52,8.76-4.73Z" fill="#2f2e41" data-secondary="true"/>

<path d="M161.43,537.89s-6,2.77-8.7,6.25a1.49,1.49,0,0,1-2.6-.43c-.24-.87-.12-2.31.78-4.69,0,0,1-3.63,8.14-3.36Z" fill="#2f2e41" data-secondary="true"/>

<path d="M156.24,531.78a10,10,0,0,0-5.62,3s-3.06-2.54,4.26-4.56a9.05,9.05,0,0,1,.75.76A7.41,7.41,0,0,1,156.24,531.78Z" fill="#f9b499"/>

<polygon points="789.1 194.66 715.99 129.03 687.59 161.84 665.93 235.42 708.69 284.47 789.1 194.66" fill="#2f2e41" data-secondary="true"/>

<polygon points="789.1 194.66 715.99 129.03 687.59 161.84 665.93 235.42 708.69 284.47 789.1 194.66" fill="#fff" opacity="0.4"/>

<polygon points="778.88 195.05 717.96 139.64 684.55 174.22 665.93 237.11 704.24 279.32 778.88 195.05" fill="#fff"/>

<ellipse cx="676.17" cy="253.2" rx="30.98" ry="36.06" fill="#2f2e41" data-secondary="true"/>

<ellipse cx="676.17" cy="253.2" rx="30.98" ry="36.06" fill="#fff" opacity="0.4"/>

<circle cx="710.39" cy="208.13" r="8.25" fill="#2f2e41" data-secondary="true"/>

<circle cx="710.39" cy="208.13" r="8.25" fill="#fff" opacity="0.4"/>

<polygon points="548.06 271.02 604.12 83.11 702.25 112.05 665.93 235.42 548.06 271.02" fill="#2f2e41" data-secondary="true"/>

<polygon points="608.31 90.87 557.53 262.42 660.13 229.95 691.66 115.58 608.31 90.87" fill="#fff"/>

<circle cx="619.63" cy="217.15" r="40.5" fill="#2f2e41" data-secondary="true"/>

<circle cx="634.89" cy="157" r="10.3" fill="#2f2e41" data-secondary="true"/>

<rect x="315.12" y="273.28" width="417.63" height="238.64" rx="23.7" transform="translate(-94.26 177.01) rotate(-17.62)" fill="#2f2e41" data-primary="true"/>

<rect x="365.85" y="473.16" width="100.92" height="9.09" transform="translate(-125.07 148.43) rotate(-17.62)" fill="#fff"/>

<rect x="370.87" y="491.55" width="67.44" height="9.09" transform="translate(-131.19 145.74) rotate(-17.62)" fill="#fff"/>

<path d="M376.44,455.76c2.37,7.49.91,12.5-4,14.05-4.3,1.36-8.49-1.74-10.87-9s-.45-12.45,4-13.87C370.26,445.46,374.21,448.76,376.44,455.76Zm-11.85,4.14c1.82,5.72,4.61,8.41,7.32,7.55,3-1,3.38-5,1.59-10.6-1.72-5.42-4.24-8.54-7.32-7.56C363.58,450.12,362.69,453.91,364.59,459.9Z" fill="#fff"/>

<path d="M393.78,450.26c2.37,7.48.91,12.49-4,14-4.3,1.37-8.49-1.74-10.87-9s-.45-12.46,4-13.88C387.6,440,391.55,443.25,393.78,450.26Zm-11.85,4.13c1.82,5.73,4.61,8.42,7.32,7.56,3.05-1,3.37-5,1.59-10.61-1.72-5.42-4.24-8.53-7.32-7.55C380.91,444.61,380,448.4,381.93,454.39Z" fill="#fff"/>

<path d="M411.11,444.75c2.38,7.48.92,12.5-4,14.05-4.3,1.36-8.49-1.74-10.87-9s-.45-12.46,4-13.88C404.94,434.45,408.89,437.74,411.11,444.75Zm-11.84,4.14c1.82,5.72,4.61,8.41,7.32,7.55,3.05-1,3.37-5,1.59-10.61-1.72-5.41-4.24-8.53-7.32-7.55C398.25,439.11,397.37,442.89,399.27,448.89Z" fill="#fff"/>

<path d="M428.45,439.25c2.38,7.48.91,12.49-4,14-4.3,1.37-8.49-1.74-10.87-9s-.46-12.45,4-13.87C422.27,428.94,426.23,432.24,428.45,439.25Zm-11.84,4.13c1.81,5.72,4.61,8.41,7.32,7.55,3-1,3.37-5,1.59-10.6-1.72-5.42-4.24-8.53-7.32-7.56C415.59,433.6,414.7,437.39,416.61,443.38Z" fill="#fff"/>

<path d="M464.88,427c2.38,7.48.91,12.49-4,14-4.3,1.37-8.49-1.74-10.87-9s-.46-12.45,4-13.87C458.7,416.72,462.66,420,464.88,427ZM453,431.15c1.81,5.72,4.61,8.42,7.32,7.56,3-1,3.37-5,1.59-10.61-1.73-5.42-4.24-8.53-7.32-7.55C452,421.37,451.13,425.16,453,431.15Z" fill="#fff"/>

<path d="M482.22,421.51c2.38,7.48.91,12.5-4,14-4.3,1.37-8.5-1.73-10.88-9s-.45-12.46,4-13.88C476,411.21,480,414.5,482.22,421.51Zm-11.85,4.13c1.82,5.73,4.62,8.42,7.32,7.56,3.05-1,3.38-5,1.59-10.61-1.72-5.42-4.23-8.53-7.32-7.55C469.36,415.87,468.47,419.65,470.37,425.64Z" fill="#fff"/>

<path d="M499.56,416c2.37,7.49.91,12.5-4,14.05-4.3,1.36-8.49-1.74-10.87-9s-.45-12.45,4-13.87C493.38,405.7,497.33,409,499.56,416Zm-11.85,4.14c1.82,5.72,4.61,8.41,7.32,7.55,3.05-1,3.38-5,1.59-10.6-1.72-5.42-4.24-8.54-7.32-7.56C486.69,410.36,485.81,414.15,487.71,420.14Z" fill="#fff"/>

<path d="M516.9,410.5c2.37,7.48.91,12.49-4,14-4.3,1.37-8.49-1.74-10.87-9s-.45-12.45,4-13.87C510.72,400.2,514.67,403.49,516.9,410.5Zm-11.85,4.13c1.82,5.72,4.61,8.42,7.32,7.56,3-1,3.37-5,1.59-10.61-1.72-5.42-4.24-8.53-7.32-7.55C504,404.85,503.15,408.64,505.05,414.63Z" fill="#fff"/>

<path d="M553.72,397.63c2.38,7.48.92,12.5-4,14-4.3,1.37-8.49-1.74-10.87-9s-.45-12.46,4-13.88C547.54,387.33,551.5,390.62,553.72,397.63Zm-11.84,4.13c1.82,5.73,4.61,8.42,7.32,7.56,3-1,3.37-5,1.59-10.61-1.72-5.42-4.24-8.53-7.32-7.55C540.86,392,540,395.77,541.88,401.76Z" fill="#fff"/>

<path d="M571.06,392.12c2.38,7.49.91,12.5-4,14.05-4.3,1.36-8.49-1.74-10.87-9s-.46-12.46,4-13.88C564.88,381.82,568.84,385.11,571.06,392.12Zm-11.84,4.14c1.81,5.72,4.61,8.41,7.32,7.55,3-1,3.37-5,1.58-10.61-1.71-5.41-4.23-8.53-7.31-7.55C558.2,386.48,557.31,390.26,559.22,396.26Z" fill="#fff"/>

<path d="M588.4,386.62c2.38,7.48.91,12.49-4,14-4.3,1.37-8.5-1.74-10.88-9s-.45-12.45,4-13.87C582.22,376.31,586.17,379.61,588.4,386.62Zm-11.85,4.13c1.82,5.72,4.62,8.41,7.32,7.55,3-1,3.38-5,1.59-10.6-1.72-5.42-4.24-8.53-7.32-7.56C575.54,381,574.65,384.76,576.55,390.75Z" fill="#fff"/>

<path d="M605.74,381.11c2.37,7.48.91,12.5-4,14-4.3,1.37-8.49-1.74-10.87-9s-.45-12.46,4-13.88C599.56,370.81,603.51,374.1,605.74,381.11Zm-11.85,4.13c1.82,5.73,4.61,8.42,7.32,7.56,3-1,3.38-5,1.59-10.61-1.72-5.42-4.24-8.53-7.32-7.55C592.87,375.47,592,379.25,593.89,385.24Z" fill="#fff"/>

<path d="M642.17,368.88c2.37,7.48.91,12.5-4,14.05-4.3,1.36-8.49-1.74-10.87-9s-.45-12.46,4-13.88C636,358.58,639.94,361.87,642.17,368.88ZM630.32,373c1.82,5.72,4.61,8.41,7.32,7.55,3.05-1,3.38-5,1.59-10.61-1.72-5.41-4.24-8.53-7.32-7.55C629.3,363.24,628.42,367,630.32,373Z" fill="#fff"/>

<path d="M659.51,363.37c2.37,7.49.91,12.5-4,14.05-4.3,1.37-8.49-1.74-10.87-9s-.45-12.45,4-13.87C653.33,353.07,657.28,356.37,659.51,363.37Zm-11.85,4.14c1.82,5.72,4.61,8.41,7.32,7.55,3-1,3.37-5,1.59-10.6-1.72-5.42-4.24-8.54-7.32-7.56C646.64,357.73,645.76,361.52,647.66,367.51Z" fill="#fff"/>

<path d="M676.84,357.87c2.38,7.48.92,12.49-4,14-4.3,1.37-8.49-1.74-10.87-9s-.45-12.46,4-13.88C670.66,347.57,674.62,350.86,676.84,357.87ZM665,362c1.82,5.73,4.61,8.42,7.32,7.56,3-1,3.37-5,1.59-10.61-1.72-5.42-4.24-8.53-7.32-7.55C664,352.22,663.1,356,665,362Z" fill="#fff"/>

<path d="M694.18,352.36c2.38,7.48.91,12.5-4,14.05-4.3,1.36-8.49-1.74-10.87-9s-.46-12.46,4-13.88C688,342.06,692,345.35,694.18,352.36Zm-11.84,4.14c1.81,5.72,4.61,8.41,7.32,7.55,3-1,3.37-5,1.59-10.61-1.73-5.41-4.24-8.53-7.32-7.55C681.32,346.72,680.43,350.5,682.34,356.5Z" fill="#fff"/>

<path d="M486.41,365.32l-18-56.54,17.4-5.53a27.72,27.72,0,0,1,14.4-.87A24.51,24.51,0,0,1,512.47,309a31,31,0,0,1,7.77,13l.83,2.6a31,31,0,0,1,1.21,15.05,24.34,24.34,0,0,1-6.13,12.42,27.79,27.79,0,0,1-12.23,7.64Zm-3.31-50.8,12,37.74,5.63-1.79q6.82-2.18,9-7.78t-.36-13.95l-.95-3q-2.74-8.62-7.73-11.93t-11.85-1.13Z" fill="#fff"/>

<path d="M564.33,313.6,542,320.7l4.81,15.14L573,327.51l3,9.36-37.9,12-18-56.53,37.82-12,3,9.44-26.17,8.31,4.28,13.48,22.37-7.11Z" fill="#fff"/>

<path d="M582.83,334.69l-18-56.53,19.8-6.29q10.29-3.27,16.86-1t9,9.87a13.4,13.4,0,0,1,.19,8,12.91,12.91,0,0,1-4.47,6.53,12.51,12.51,0,0,1,8.25,2.21,13.61,13.61,0,0,1,5.07,7.28q2.6,8.16-1.28,14t-13.48,9ZM584,298.14l8.62-2.73q8.76-3,6.58-9.83-1.22-3.84-4-4.82c-1.84-.66-4.37-.47-7.58.54l-8.15,2.59Zm2.62,8.24,4.84,15.26,10-3.17a10.14,10.14,0,0,0,5.81-4,7,7,0,0,0,.58-6.15q-2.46-7.77-10.54-5.33Z" fill="#fff"/>

<path d="M660.13,258.29l-17.32,5.5,15,47.1-11.65,3.7-15-47.1-17.09,5.43-3-9.44,46-14.62Z" fill="#fff"/>

<path d="M503.76,482a25.18,25.18,0,0,1,8.1.67,12.71,12.71,0,0,1,3.81,1.64,7.45,7.45,0,0,1,2.79,3.21,7.89,7.89,0,0,1,.56,4.25,13.07,13.07,0,0,1-.46,2,17.74,17.74,0,0,1-.67,2,8.7,8.7,0,0,1-1,1.86,4.39,4.39,0,0,1-1.7,1.43,3.76,3.76,0,0,1-2.24.2,6.87,6.87,0,0,1-2-.8l0,0a4.65,4.65,0,0,1-2.27-3.07,6.62,6.62,0,0,1,.36-3.74,7.93,7.93,0,0,1,5.52-4.72,8.68,8.68,0,0,1,7.17,1.49,9.54,9.54,0,0,1,3.51,6.44L524,495a8.33,8.33,0,0,0-3-5.72,7.56,7.56,0,0,0-6.24-1.38,7,7,0,0,0-4.88,4.07,5.7,5.7,0,0,0-.36,3.2,3.81,3.81,0,0,0,1.77,2.49h0a3.8,3.8,0,0,0,3.46.58,5,5,0,0,0,2.23-2.86,14.66,14.66,0,0,0,.79-3.84,7.34,7.34,0,0,0-.32-3.7,6.51,6.51,0,0,0-2.33-2.93,12.76,12.76,0,0,0-3.5-1.75A27.1,27.1,0,0,0,503.76,482Z" fill="#2f2e41" data-primary="true"/>

<path d="M503.76,482a25.18,25.18,0,0,1,8.1.67,12.71,12.71,0,0,1,3.81,1.64,7.45,7.45,0,0,1,2.79,3.21,7.89,7.89,0,0,1,.56,4.25,13.07,13.07,0,0,1-.46,2,17.74,17.74,0,0,1-.67,2,8.7,8.7,0,0,1-1,1.86,4.39,4.39,0,0,1-1.7,1.43,3.76,3.76,0,0,1-2.24.2,6.87,6.87,0,0,1-2-.8l0,0a4.65,4.65,0,0,1-2.27-3.07,6.62,6.62,0,0,1,.36-3.74,7.93,7.93,0,0,1,5.52-4.72,8.68,8.68,0,0,1,7.17,1.49,9.54,9.54,0,0,1,3.51,6.44L524,495a8.33,8.33,0,0,0-3-5.72,7.56,7.56,0,0,0-6.24-1.38,7,7,0,0,0-4.88,4.07,5.7,5.7,0,0,0-.36,3.2,3.81,3.81,0,0,0,1.77,2.49h0a3.8,3.8,0,0,0,3.46.58,5,5,0,0,0,2.23-2.86,14.66,14.66,0,0,0,.79-3.84,7.34,7.34,0,0,0-.32-3.7,6.51,6.51,0,0,0-2.33-2.93,12.76,12.76,0,0,0-3.5-1.75A27.1,27.1,0,0,0,503.76,482Z" fill="#fff" opacity="0.4"/>

<path d="M721.89,501.89V541.7H701c-5.55,11.63-15,21.86-27.15,29.77v28.31h-28V584.09a122.82,122.82,0,0,1-67-.1v15.79h-28V571.25C531,558.21,518.5,539,518.5,517.53c0-39.3,42.1-71.15,94-71.15a117.94,117.94,0,0,1,45.57,8.9c10.6-17.57,31.56-11.89,31.56-11.89l-11.21,23.4c12.66,9.41,21.81,21.52,25.83,35.1Z" fill="#2f2e41" data-primary="true"/>

<path d="M721.89,501.89V541.7H701c-5.55,11.63-15,21.86-27.15,29.77v28.31h-28V584.09a122.82,122.82,0,0,1-67-.1v15.79h-28V571.25C531,558.21,518.5,539,518.5,517.53c0-39.3,42.1-71.15,94-71.15a117.94,117.94,0,0,1,45.57,8.9c10.6-17.57,31.56-11.89,31.56-11.89l-11.21,23.4c12.66,9.41,21.81,21.52,25.83,35.1Z" fill="#fff" opacity="0.4"/>

<circle cx="680.72" cy="508.74" r="6.86" fill="#2f2e41" data-secondary="true"/>

<ellipse cx="716.88" cy="520.57" rx="1.87" ry="9.53" fill="#2f2e41" data-secondary="true"/>

<path d="M575.78,463.57a1.24,1.24,0,0,1-.37-2.42c1-.3,23.66-7.36,43.46-3.94a1.24,1.24,0,0,1-.42,2.45c-19.2-3.32-42.07,3.78-42.29,3.86A1.24,1.24,0,0,1,575.78,463.57Z" fill="#2f2e41" data-secondary="true"/>

<g opacity="0.4">

<path d="M152.18,362.64l-1-.16c3.8-22.72-4.62-103.06-4.71-103.87l1-.1C147.56,259.32,156,339.79,152.18,362.64Z"/>

</g>

<path d="M154.16,225.89l.34,5.46s-14.66,2.64-19.25-12.21Z" fill="#f7a48b"/>

<ellipse cx="146.03" cy="198.93" rx="19.1" ry="28.26" transform="translate(-39.62 36.35) rotate(-12.51)" fill="#f9b499"/>

<ellipse cx="127.34" cy="205.67" rx="3.76" ry="6.52" transform="translate(-91.89 103.42) rotate(-33.23)" fill="#f9b499"/>

<path d="M122.79,201.56c-1.18,5.79,4.55,9.26,4.55,9.26-1.08,4-5.54-5.15-5.54-5.15-3.59-5.78-3.59-9.9-3.59-9.9-4.17-15.82,5-18.13,5-18.13,3.31,3.89,5.58,4,5.58,4s4.64.63,3.49,6.81c0,0,.44,6.68-1,10.5a5.18,5.18,0,0,0,.57,3.67s2.44,5.14.14,4.8c0,0-2.74-1.17-5.14-7.12C126.87,200.28,123.77,198.5,122.79,201.56Z" fill="#2f2e41" data-secondary="true"/>

<path d="M123.24,177.64s-3.59-7.33,6.33-7.33c0,0,5.47-2,3.89-6.48a4.72,4.72,0,0,1,2.73,4.61s1.44-2-.58-4.61c0,0,3.31,1,3.6,3.31a4.53,4.53,0,0,0-2-4s3-1,5.9,4.18l7.74,6.12v5.38s-12-2.44-14.11.72c0,0-1.74,5.53-5.27,3.7a11.9,11.9,0,0,0-2.62-1.28A12.3,12.3,0,0,1,123.24,177.64Z" fill="#2f2e41" data-secondary="true"/>

<path d="M149.71,183a9.62,9.62,0,0,0,4.79,8.38,13.24,13.24,0,0,0,10.75,6.57,13.88,13.88,0,0,0-.46-2.25L149.71,183" fill="#f7a48b"/>

<path d="M211.25,245.67s7.47-9.26,8.16-14.32c0,0,4.48-2.13-1.9-6.95,0,0-17.39-21.78-38.76-29.67,0,0-7.75-4.1-10.68-8.92a42,42,0,0,1-5-10.85s-.52-1.38-3.1-2.59c0,0-6.38-5.68-9.14-4.48,0,0-9.47-4.81-9.13-.16a6.1,6.1,0,0,0,3.26,2.15s-6.18-1.69-6.48.14c0,0,2.59,4,6.91,4.17a13,13,0,0,0,4,2.73s-13.37-2-14.09.72c0,0-1.44,2.74,7.77,2.16,0,0,3.59,2.59,6.61,3.17,0,0,1.87,5.18,5,7.05,0,0,3,7.76,11.22,6.9l26.52,33.38,4.92,4.69a21.54,21.54,0,0,1,7.19,5.74S208.25,245.44,211.25,245.67Z" fill="#f9b499"/>

<g clip-path="url(#ea2fb1ee-e337-4b0b-9950-73e4006796bf)">

<path d="M149.42,176.92a13.66,13.66,0,0,1,6.52,5.9" fill="none" stroke="#f7a48b" stroke-miterlimit="10"/>

<path d="M145,169.88s6.87,3.25,9.53,6.26" fill="none" stroke="#f7a48b" stroke-miterlimit="10"/>

<path d="M150.84,167.89s6.46,3.77,8.23,7" fill="none" stroke="#f7a48b" stroke-miterlimit="10"/>

</g>

<line x1="108.99" y1="403.35" x2="107.54" y2="394.96" fill="none" stroke="#f7a48b" stroke-miterlimit="10"/>

<line x1="112.85" y1="405.28" x2="111.82" y2="396.34" fill="none" stroke="#f7a48b" stroke-miterlimit="10"/>

<line x1="118.48" y1="406.24" x2="117.68" y2="398.29" fill="none" stroke="#f7a48b" stroke-miterlimit="10"/>

<path d="M97.4,533.09s8.08.15,3.6,11c0,0-1.49,8.28-3.2,12.68a4.67,4.67,0,0,1-3.54,2.92,10.25,10.25,0,0,1-7.66-1.46,2.58,2.58,0,0,1-1-2.82c.91-3.27,2.91-10.77,2.91-13.37C88.47,542,86.86,530.16,97.4,533.09Z" fill="#2f2e41" data-primary="true"/>

<path d="M97.4,533.09s8.08.15,3.6,11c0,0-1.49,8.28-3.2,12.68a4.67,4.67,0,0,1-3.54,2.92,10.25,10.25,0,0,1-7.66-1.46,2.58,2.58,0,0,1-1-2.82c.91-3.27,2.91-10.77,2.91-13.37C88.47,542,86.86,530.16,97.4,533.09Z" opacity="0.2"/>

<path d="M100.55,552.59s-6.39-6.94-14.43-2.53c0,0-3.75,3.34,2.75,3.21,0,0,5,.81,7.95,2.71a2.75,2.75,0,0,0,3.19,0C100.75,555.4,101.24,554.38,100.55,552.59Z" fill="#2f2e41" data-secondary="true"/>

<path d="M101,544.07s2.72,1.91,1.35,3.9c-.26.66-2.28,1.43-5.73,0,0,0-4.77-2-8.9-1.12,0,0-3.62-.79.69-3.92C88.41,542.93,93.41,540.51,101,544.07Z" fill="#2f2e41" data-secondary="true"/>

<rect x="127.94" y="510.34" width="26.91" height="15.3" rx="4.34" fill="#2f2e41" data-primary="true"/>

<path d="M200.74,538.43v-1c1.2,0,2.41-.07,3.61-.16l.08,1C203.2,538.36,202,538.42,200.74,538.43Z" fill="#2f2e41" data-secondary="true"/>

<path d="M225.07,531.86l-.48-.87c.76-.43,1.53-.87,2.31-1.35l.52.85C226.64,531,225.85,531.43,225.07,531.86Z" fill="#2f2e41" data-secondary="true"/>

<path d="M213.44,536.65l-.26-1c1.12-.31,2.22-.65,3.25-1l.34,1C215.71,536,214.59,536.33,213.44,536.65Z" fill="#2f2e41" data-secondary="true"/>

<path d="M191.67,537.65c-1.31-.23-2.65-.53-4-.88l.26-1c1.29.35,2.6.64,3.89.86Z" fill="#2f2e41" data-secondary="true"/>

<path d="M179.12,533.49l-2.6-1.45.48-.87,2.62,1.45Z" fill="#2f2e41" data-secondary="true"/>

<path d="M168.62,527.76l-1.87-1-1.46-.76.46-.89,1.46.77,1.87,1Z" fill="#2f2e41" data-secondary="true"/>

<path d="M157.1,521.87l-2.47-1.2.44-.9,2.47,1.2Z" fill="#2f2e41" data-secondary="true"/>

<path d="M162.44,528.31a3,3,0,0,1-2-.71l-3-2.49a3.08,3.08,0,0,1-.62-4,2,2,0,0,1,.24-.36l1-1.17a3.06,3.06,0,0,1,4.31-.36l3,2.49a3.08,3.08,0,0,1,.53,4.11,1.4,1.4,0,0,1-.16.2l-1,1.17A3.1,3.1,0,0,1,162.44,528.31Zm-2-8.77h-.18a2.08,2.08,0,0,0-1.4.73l-1,1.16a1,1,0,0,0-.15.23,2.09,2.09,0,0,0,.4,2.69l3,2.48a2.08,2.08,0,0,0,2.92-.25l1-1.16.09-.12h0a2.07,2.07,0,0,0-.35-2.77l-3-2.49A2.06,2.06,0,0,0,160.47,519.54Z" fill="#2f2e41" data-secondary="true"/>

<path d="M174.28,533.84a3.08,3.08,0,0,1-1.53-.41l-3.35-1.94a3,3,0,0,1-1.12-4.18L169,526a3,3,0,0,1,1.84-1.43,3,3,0,0,1,2.34.3l3.35,1.94a3.05,3.05,0,0,1,1.12,4.19h0l-.76,1.31a3,3,0,0,1-1.84,1.42A2.82,2.82,0,0,1,174.28,533.84Zm-2.59-8.38a2,2,0,0,0-1.79,1l-.76,1.32a2.06,2.06,0,0,0,.76,2.81l3.35,1.94a2,2,0,0,0,2.81-.75l.77-1.31a2.08,2.08,0,0,0,.2-1.58,2,2,0,0,0-1-1.24l-3.35-1.94A2,2,0,0,0,171.69,525.46Z" fill="#2f2e41" data-secondary="true"/>

<path d="M184.65,539.83a3,3,0,0,1-1.53-.41l-3.35-1.94a3.08,3.08,0,0,1-1.13-4.18l.76-1.31a3.07,3.07,0,0,1,1.87-1.44,3,3,0,0,1,2.32.31L187,532.8a3,3,0,0,1,1.35,3.65,3.93,3.93,0,0,1-.23.52l-.76,1.32A3.06,3.06,0,0,1,184.65,539.83Zm-2.59-8.38a2,2,0,0,0-.53.07,2,2,0,0,0-1.26,1l-.76,1.31a2.07,2.07,0,0,0,.76,2.81l3.35,1.94a2.08,2.08,0,0,0,2.83-.75l.75-1.31a2.28,2.28,0,0,0,.15-.36h0a2.06,2.06,0,0,0-.91-2.45l-3.36-1.94A2,2,0,0,0,182.06,531.45Z" fill="#2f2e41" data-secondary="true"/>

<path d="M198,542a3.11,3.11,0,0,1-.43,0l-3.83-.54a3,3,0,0,1-2-1.19,3.11,3.11,0,0,1-.59-2.28l.21-1.49a3.07,3.07,0,0,1,3.47-2.61l3.84.55a3.08,3.08,0,0,1,2.6,3.46l0,.14-.2,1.36A3.07,3.07,0,0,1,198,542Zm-3.62-7.17a2.08,2.08,0,0,0-2,1.78l-.21,1.5a2.11,2.11,0,0,0,.4,1.53,2,2,0,0,0,1.36.8l3.83.54a2.06,2.06,0,0,0,2.33-1.75l.23-1.5a2.09,2.09,0,0,0-1.76-2.33l-3.84-.55Z" fill="#2f2e41" data-secondary="true"/>

<path d="M206.92,540.75a3,3,0,0,1-2-.78,3.06,3.06,0,0,1-1-2.13l-.08-1.51a3,3,0,0,1,.79-2.21,3,3,0,0,1,2.11-1l3.87-.2a3.06,3.06,0,0,1,3.22,2.9l.08,1.51a3.08,3.08,0,0,1-2.9,3.22l-3.88.2Zm3.81-6.84h-.11l-3.87.19a2.07,2.07,0,0,0-1.95,2.17l.08,1.46a2.09,2.09,0,0,0,.68,1.48,2,2,0,0,0,1.48.53l3.87-.19a2.08,2.08,0,0,0,2-2.18l-.08-1.5a2.08,2.08,0,0,0-2.06-2Z" fill="#2f2e41" data-secondary="true"/>

<path d="M219.18,537.83a3,3,0,0,1-1.33-.31,3,3,0,0,1-1.56-1.75l-.5-1.43a3.07,3.07,0,0,1,1.89-3.9l3.65-1.27a3,3,0,0,1,2.35.14,3,3,0,0,1,1.55,1.75l.5,1.42a3.08,3.08,0,0,1-1.88,3.91h0l-3.65,1.27A3.2,3.2,0,0,1,219.18,537.83Zm3.17-7.83a2.09,2.09,0,0,0-.69.12L218,531.39a2.07,2.07,0,0,0-1.27,2.62l.5,1.43a2.06,2.06,0,0,0,2.63,1.27l3.65-1.27a2.07,2.07,0,0,0,1.28-2.63l-.5-1.42a2,2,0,0,0-1-1.18A2,2,0,0,0,222.35,530Z" fill="#2f2e41" data-secondary="true"/>

<path d="M229.68,532.25a3.05,3.05,0,0,1-2.52-1.31l-.86-1.24a3.06,3.06,0,0,1,.76-4.26l3.18-2.21a3.07,3.07,0,0,1,4.27.76l.86,1.24a3.08,3.08,0,0,1-.77,4.27h0l-3.18,2.21A3,3,0,0,1,229.68,532.25Zm2.31-8.57a2.06,2.06,0,0,0-1.18.37l-3.18,2.21a2,2,0,0,0-.85,1.33,2,2,0,0,0,.34,1.54l.86,1.24a2.07,2.07,0,0,0,2.87.52l3.18-2.21a2.07,2.07,0,0,0,.52-2.88l-.86-1.24A2.08,2.08,0,0,0,232,523.68Z" fill="#2f2e41" data-secondary="true"/>

<path d="M238.83,523.93a3.05,3.05,0,0,1-2.22-1,2.57,2.57,0,0,1-.29-.35l-.87-1.25a3.06,3.06,0,0,1,.76-4.26l3.18-2.21a3.07,3.07,0,0,1,4.27.76l.86,1.24a3.08,3.08,0,0,1-.76,4.27l-3.17,2.21A3.1,3.1,0,0,1,238.83,523.93Zm2.31-8.58a2,2,0,0,0-1.17.37l-3.19,2.21a2.07,2.07,0,0,0-.51,2.87l.86,1.24a2.11,2.11,0,0,0,.19.23,2.08,2.08,0,0,0,2.7.28l3.16-2.2a2.08,2.08,0,0,0,.52-2.88l-.86-1.24A2.08,2.08,0,0,0,241.14,515.35Z" fill="#2f2e41" data-secondary="true"/>

<path d="M354.07,495.23a52.88,52.88,0,1,1-52.87-52.87A52.88,52.88,0,0,1,354.07,495.23Z" fill="#2f2e41" data-primary="true"/>

<path d="M354.07,495.23a52.88,52.88,0,1,1-52.87-52.87A52.88,52.88,0,0,1,354.07,495.23Z" fill="#fff" opacity="0.4"/>

<path d="M294.87,518.82a28.68,28.68,0,0,1-.33-4.32c0-2.92.68-5,2-6.37a7.23,7.23,0,0,1,5.64-2.22,8.34,8.34,0,0,1,6.12,2.27c1.47,1.47,2.27,3.89,2.27,6.95a32,32,0,0,1-.19,3.69Zm13.91-2a12,12,0,0,0,.12-2c0-4.35-2.43-6.7-6.67-6.7-3.72,0-6.08,2.07-6.08,6.37a12.05,12.05,0,0,0,.21,2.38Z" fill="#2f2e41" data-secondary="true"/>

<path d="M303,495.13v6.11h5.67v-6.81h1.71v8.85H294.66v-8.5h1.7v6.46h5v-6.11Z" fill="#2f2e41" data-secondary="true"/>

<path d="M294.87,491.79a19.33,19.33,0,0,1-.33-3.71,6.47,6.47,0,0,1,1.15-4.32,3.3,3.3,0,0,1,2.78-1.31,3.75,3.75,0,0,1,3.45,2.67H302a4,4,0,0,1,3.94-3.25,4.24,4.24,0,0,1,3.15,1.33c1,1.1,1.48,2.87,1.48,5.44a24.11,24.11,0,0,1-.19,3.15Zm6.44-2v-1.84c0-2.15-1.12-3.41-2.63-3.41-1.85,0-2.57,1.4-2.57,3.45a8.72,8.72,0,0,0,.14,1.8Zm7.54,0a9.63,9.63,0,0,0,.1-1.7c0-2.1-.77-4-3.06-4s-3,1.84-3,4.06v1.68Z" fill="#2f2e41" data-secondary="true"/>

<path d="M296.39,476.36v4.79h-1.73V469.5h1.73v4.81h14v2.05Z" fill="#2f2e41" data-secondary="true"/>

<path d="M256.37,523.28l-1.8.74a9.58,9.58,0,0,1-12.51-5.18l-1.61-3.9a9.56,9.56,0,0,1,5.18-12.51l3-1.25A52.43,52.43,0,0,0,256.37,523.28Z" fill="#2f2e41" data-secondary="true"/>

<path d="M234.77,525.19l-.63-.78a5.86,5.86,0,0,0,1.77-2.69l1,.26A6.85,6.85,0,0,1,234.77,525.19Z" fill="#2f2e41" data-secondary="true"/>

</svg>