

 <svg xmlns="http://www.w3.org/2000/svg" width="100%" height="100%" viewBox="0 0 865.76 682.89">

<rect x="232.51" y="68.03" width="423.6" height="329.61" fill="#fff"/>

<path d="M656.61,398.14H232V67.53h424.6Zm-423.6-1h422.6V68.53H233Z" fill="#2f2e41" data-secondary="true"/>

<rect x="284.02" y="168.36" width="1" height="201.6" fill="#2f2e41" data-secondary="true"/>

<rect x="348.46" y="209.27" width="1" height="160.54" fill="#2f2e41" data-secondary="true"/>

<rect x="411.24" y="166.31" width="1" height="160.54" fill="#2f2e41" data-secondary="true"/>

<rect x="466.47" y="133.58" width="1" height="160.54" fill="#2f2e41" data-secondary="true"/>

<rect x="532.32" y="211.32" width="1" height="160.54" fill="#2f2e41" data-secondary="true"/>

<rect x="604.51" y="165.29" width="1" height="160.54" fill="#2f2e41" data-secondary="true"/>

<path d="M350.49,209.91a1.5,1.5,0,1,1-1.5-1.5h0A1.5,1.5,0,0,1,350.49,209.91Z" fill="#2f2e41" data-secondary="true"/>

<circle cx="411.74" cy="165.35" r="1.5" fill="#2f2e41" data-secondary="true"/>

<path d="M411.74,170.62a5.27,5.27,0,1,1,5.26-5.27A5.27,5.27,0,0,1,411.74,170.62Zm0-10.19a4.92,4.92,0,1,0,4.92,4.92A4.92,4.92,0,0,0,411.74,160.43Z" fill="#2f2e41" data-secondary="true"/>

<circle cx="466.78" cy="133.71" r="1.5" fill="#2f2e41" data-secondary="true"/>

<circle cx="532.82" cy="211.41" r="1.5" fill="#2f2e41" data-secondary="true"/>

<circle cx="605.01" cy="165.35" r="1.5" fill="#263238"/>

<path d="M286,166.86a1.5,1.5,0,1,1-1.5-1.51h0a1.49,1.49,0,0,1,1.49,1.49Z" fill="#2f2e41" data-secondary="true"/>

<path d="M619.19,237.76a6,6,0,0,1-1.18.39,25.89,25.89,0,0,0-3.41,1.17,32.65,32.65,0,0,0-10.94,8.27c-4.13,4.44-8.2,10.61-13.34,17.56a85.7,85.7,0,0,1-9.07,10.52,50.65,50.65,0,0,1-5.88,4.87,41,41,0,0,1-7.1,3.87,39.78,39.78,0,0,1-17,2.85,44,44,0,0,1-9.14-1.14,23.79,23.79,0,0,1-8.84-3.89,28.29,28.29,0,0,1-6.9-7.2c-1.9-2.76-3.61-5.68-5.26-8.64-3.31-6-6.73-12-10.63-18s-7.37-12.54-11.32-18.88a90.32,90.32,0,0,0-13.88-17.91,40.66,40.66,0,0,0-9.32-6.67,30.88,30.88,0,0,0-11-3.24,38.85,38.85,0,0,0-23,4.9,57.77,57.77,0,0,0-17.47,16.31A178.44,178.44,0,0,0,412.06,243,204.49,204.49,0,0,1,400,262.65a96.6,96.6,0,0,1-14.65,16.69,53,53,0,0,1-4.25,3.39,49.81,49.81,0,0,1-4.51,2.94,39.39,39.39,0,0,1-9.75,4,34.17,34.17,0,0,1-5.1.95,18.37,18.37,0,0,1-2.57.14h-2.55a39.19,39.19,0,0,1-9.77-1.82,66.1,66.1,0,0,1-16.53-8.63c-4.91-3.37-9.39-6.89-13.79-10a71.92,71.92,0,0,0-13.07-7.92,43.59,43.59,0,0,0-13-3.71,32,32,0,0,0-11.7.76,18.62,18.62,0,0,0-2.53.81,15.7,15.7,0,0,0-2.38.94,31.34,31.34,0,0,0-4.13,2.28,45.78,45.78,0,0,0-6.21,5l-2.17,2.37a20,20,0,0,0-1.74,2l-2.19,2.88a6.67,6.67,0,0,1-.81.95,5.26,5.26,0,0,1,.63-1.08l2-3a21.19,21.19,0,0,1,1.67-2.11L263,268a42.1,42.1,0,0,1,6.22-5.24,31,31,0,0,1,4.13-2.42,14.12,14.12,0,0,1,2.41-1,20.11,20.11,0,0,1,2.61-.9,33.13,33.13,0,0,1,12.1-1,44.69,44.69,0,0,1,13.45,3.65,74.28,74.28,0,0,1,13.42,7.94c4.44,3.14,8.95,6.6,13.78,9.89a64.43,64.43,0,0,0,16.13,8.27,36.43,36.43,0,0,0,9.31,1.67H359a16.3,16.3,0,0,0,2.42-.15,31.53,31.53,0,0,0,4.82-.92,43.92,43.92,0,0,0,17.75-9.93,94.42,94.42,0,0,0,14.28-16.38A208.07,208.07,0,0,0,410.17,242a180.17,180.17,0,0,1,12.61-20.33,60.07,60.07,0,0,1,18.13-16.9,42,42,0,0,1,11.8-4.46,41.33,41.33,0,0,1,12.4-.71,33,33,0,0,1,11.81,3.49,41.72,41.72,0,0,1,9.8,7,92.7,92.7,0,0,1,14.18,18.34c4,6.41,7.5,12.87,11.26,18.92s7.35,12.2,10.6,18.14,6.52,11.76,11.57,15.33a22,22,0,0,0,8.26,3.66,44.12,44.12,0,0,0,8.78,1.16,38.82,38.82,0,0,0,16.35-2.6,40.63,40.63,0,0,0,6.89-3.67,49.51,49.51,0,0,0,5.76-4.66,83.34,83.34,0,0,0,9-10.27c5.21-6.89,9.44-13,13.7-17.39A31.71,31.71,0,0,1,614.51,239a18.46,18.46,0,0,1,3.51-1A6.7,6.7,0,0,1,619.19,237.76Z" fill="#0071f2" data-primary="true"/>

<rect x="283.03" y="105.02" width="73.86" height="4.11" fill="#2f2e41" data-secondary="true"/>

<rect x="283.03" y="114.64" width="36.49" height="4.11" fill="#2f2e41" data-secondary="true"/>

<path d="M238.21,41.14H649.9a6.21,6.21,0,0,1,6.21,6.22h0V68H232V47.36A6.21,6.21,0,0,1,238.21,41.14Z" fill="#2f2e41" data-secondary="true"/>

<path d="M254,55.1a2.9,2.9,0,1,1-2.89-2.89A2.89,2.89,0,0,1,254,55.1Z" fill="#fff"/>

<path d="M266.62,55.1a2.9,2.9,0,1,1-2.9-2.89,2.89,2.89,0,0,1,2.9,2.89Z" fill="#fff"/>

<path d="M279.24,55.1a2.9,2.9,0,1,1-2.89-2.89,2.89,2.89,0,0,1,2.89,2.89Z" fill="#fff"/>

<rect x="149.13" y="130.17" width="171.48" height="71.21" rx="3.61" fill="#e0e0e0"/>

<path d="M184.76,152.67a8,8,0,1,1-8-8,8,8,0,0,1,8,8Z" fill="#0071f2" data-primary="true"/>

<rect x="192.75" y="147.15" width="55.71" height="3.09" fill="#0071f2" data-primary="true"/>

<rect x="192.75" y="154.18" width="108.35" height="3.09" fill="#fff"/>

<path d="M184.76,177.25a8,8,0,1,1-8-8,8,8,0,0,1,8,8Z" fill="#0071f2" data-primary="true"/>

<rect x="192.75" y="171.73" width="28.45" height="3.09" fill="#0071f2" data-primary="true"/>

<rect x="192.75" y="178.75" width="108.35" height="3.09" fill="#fff"/>

<rect x="108.78" y="346.08" width="221.25" height="94.05" rx="5.46" fill="#e0e0e0"/>

<path d="M149.26,391.52l-.13-19.07a24.33,24.33,0,0,0-15.75,6.15,22.53,22.53,0,0,0-7.58,19.74c.1.91.25,1.84.44,2.76a.09.09,0,0,1,0,.07h0l23-5.17Z" fill="#0071f2" data-primary="true"/>

<path d="M173,385.65a22.63,22.63,0,0,0-18.55-13l-.73-.07h-2l.12,19.07v4.48l23,4.94h0a21.73,21.73,0,0,0,.51-4.95A24.58,24.58,0,0,0,173,385.65Z" fill="#0071f2" data-primary="true"/>

<g opacity="0.2">

<path d="M173,385.65a22.63,22.63,0,0,0-18.55-13l-.73-.07h-2l.12,19.07v4.48l23,4.94h0a21.73,21.73,0,0,0,.51-4.95A24.58,24.58,0,0,0,173,385.65Z"/>

</g>

<path d="M150.48,398.33l-23,5.18a23.56,23.56,0,0,0,46-.15l-23-5" fill="#0071f2" data-primary="true"/>

<g opacity="0.1">

<path d="M150.48,398.33l-23,5.18a23.56,23.56,0,0,0,46-.15l-23-5"/>

</g>

<rect x="190.78" y="378.15" width="116.77" height="5.29" fill="#fff"/>

<rect x="190.78" y="392.1" width="116.77" height="5.29" fill="#fff"/>

<rect x="190.78" y="407.52" width="63.12" height="5.29" fill="#fff"/>

<rect x="408.61" y="265.08" width="230.69" height="222.12" rx="11.59" fill="#e6e6e6"/>

<rect x="424.73" y="417.24" width="7.57" height="2.18" fill="#2f2e41" data-secondary="true"/>

<rect x="441.86" y="428.91" width="9.69" height="2.18" fill="#2f2e41" data-secondary="true"/>

<rect x="475.57" y="428.91" width="9.69" height="2.18" fill="#2f2e41" data-secondary="true"/>

<rect x="509.27" y="428.91" width="9.69" height="2.18" fill="#2f2e41" data-secondary="true"/>

<rect x="542.98" y="428.91" width="9.69" height="2.18" fill="#2f2e41" data-secondary="true"/>

<rect x="576.69" y="428.91" width="9.69" height="2.18" fill="#2f2e41" data-secondary="true"/>

<rect x="610.4" y="428.91" width="9.69" height="2.18" fill="#2f2e41" data-secondary="true"/>

<rect x="424.73" y="388.1" width="7.57" height="2.18" fill="#2f2e41" data-secondary="true"/>

<rect x="424.73" y="333.25" width="7.57" height="2.18" fill="#2f2e41" data-secondary="true"/>

<rect x="424.73" y="305.7" width="7.57" height="2.18" fill="#2f2e41" data-secondary="true"/>

<rect x="425.12" y="360.68" width="7.57" height="2.18" fill="#2f2e41" data-secondary="true"/>

<rect x="443.17" y="361.71" width="178.36" height="1" fill="#2f2e41" data-secondary="true"/>

<rect x="443.17" y="334.1" width="178.36" height="1" fill="#2f2e41" data-secondary="true"/>

<rect x="443.57" y="306.33" width="178.36" height="1" fill="#2f2e41" data-secondary="true"/>

<rect x="443.17" y="388.45" width="178.36" height="1" fill="#2f2e41" data-secondary="true"/>

<path d="M445.43,413.52V389.19l15.16-23.54,10.3,7.9L492,340.74l12.41,8.78,17.33-30.32,14.09,11.46,21.11-40.14,22.75,44.87,18.42-22.45,21.66-6.2V413.46Z" fill="#0071f2" data-primary="true"/>

<path d="M621.93,298.15H616l-16.62.08h.15l-17.81,23.28-.1.11h-.13l-44.6.07.3-.16-18.75,31.25-18.42,30.6-.26.44-.31-.42-24.15-33.22h.48l-22.05,34.34c-2.63,4.14-4.71,7.28-6.14,9.48-.69,1.08-1.24,1.89-1.63,2.48s-.58.83-.58.83.17-.3.51-.87.88-1.44,1.56-2.53l6-9.58,21.83-34.46.22-.35.26.34c7.22,9.88,15.39,21.07,24.24,33.16h-.58l18.39-30.61,18.78-31.2.1-.17h44.79l-.22.11L599.22,298v-.08h.11L616,298h5.53Z" fill="#2f2e41" data-secondary="true"/>

<path d="M482.88,357.83a1.71,1.71,0,1,1-1.76-1.66h.05a1.67,1.67,0,0,1,1.71,1.63Z" fill="#2f2e41" data-secondary="true"/>

<path d="M534.33,328.57a1.71,1.71,0,1,1-1.77-1.65h.06a1.7,1.7,0,0,1,1.71,1.66Z" fill="#2f2e41" data-secondary="true"/>

<path d="M574.32,321.39a1.72,1.72,0,1,1-1.79-1.65h.08a1.69,1.69,0,0,1,1.71,1.66Z" fill="#2f2e41" data-secondary="true"/>

<ellipse cx="452.93" cy="458.06" rx="11.07" ry="10.65" fill="#fff"/>

<rect x="480.41" y="450.92" width="129.99" height="3.98" fill="#fff"/>

<rect x="480.41" y="460.88" width="53.97" height="3.98" fill="#fff"/>

<rect x="565.04" y="92.56" width="153.17" height="127.04" rx="6.81" fill="#e6e6e6"/>

<rect x="591.78" y="143.43" width="8.26" height="62.33" fill="#0071f2" data-primary="true"/>

<rect x="629.31" y="138.37" width="8.26" height="67.39" fill="#0071f2" data-primary="true"/>

<rect x="668.17" y="129.81" width="8.26" height="75.95" fill="#0071f2" data-primary="true"/>

<rect x="649.92" y="175.4" width="8.26" height="30.35" fill="#0071f2" data-primary="true"/>

<g opacity="0.2">

<rect x="649.92" y="175.4" width="8.26" height="30.35"/>

</g>

<rect x="601.4" y="136.74" width="8.26" height="69.02" fill="#0071f2" data-primary="true"/>

<g opacity="0.1">

<rect x="601.4" y="136.74" width="8.26" height="69.02"/>

</g>

<rect x="639.6" y="122.29" width="8.26" height="83.47" fill="#0071f2" data-primary="true"/>

<g opacity="0.1">

<rect x="639.6" y="122.29" width="8.26" height="83.47"/>

</g>

<rect x="689.48" y="122.29" width="8.26" height="83.47" fill="#0071f2" data-primary="true"/>

<g opacity="0.2">

<rect x="689.48" y="122.29" width="8.26" height="83.47"/>

</g>

<rect x="678.7" y="105.8" width="8.26" height="99.96" fill="#0071f2" data-primary="true"/>

<g opacity="0.1">

<rect x="678.7" y="105.8" width="8.26" height="99.96"/>

</g>

<rect x="611.5" y="161.96" width="8.26" height="43.8" fill="#0071f2" data-primary="true"/>

<g opacity="0.2">

<rect x="611.5" y="161.96" width="8.26" height="43.8"/>

</g>

<rect x="576.41" y="210.07" width="139.9" height="1" fill="#2f2e41" data-secondary="true"/>

<rect x="574.11" y="194.67" width="5.04" height="1.67" fill="#2f2e41" data-secondary="true"/>

<rect x="574.11" y="172.49" width="5.04" height="1.67" fill="#2f2e41" data-secondary="true"/>

<rect x="574.11" y="130.73" width="5.04" height="1.67" fill="#2f2e41" data-secondary="true"/>

<rect x="574.11" y="109.76" width="5.04" height="1.67" fill="#2f2e41" data-secondary="true"/>

<rect x="574.37" y="151.61" width="5.04" height="1.67" fill="#2f2e41" data-secondary="true"/>

<rect x="388.67" y="82.24" width="157.11" height="44.05" rx="4.45" fill="#0071f2" data-primary="true"/>

<path d="M421.78,111.61a9.58,9.58,0,1,1-1.47-13.47h0A9.64,9.64,0,0,1,421.78,111.61Z" fill="#fff"/>

<path d="M419.69,102.36a39.51,39.51,0,0,1-5.15,5.51l-1.26,1.21-.26.25-.23-.25a27.87,27.87,0,0,1-3.85-4.34,27.87,27.87,0,0,1,4.34,3.85h-.49l1.25-1.24A40.52,40.52,0,0,1,419.69,102.36Z" fill="#0071f2" data-primary="true"/>

<path d="M615.42,124.84H565.3a1,1,0,1,1,0-2h50.12a1,1,0,1,1,0,2Z" fill="#fff"/>

<path d="M680.51,257.85c-8.57-9.42-20.7,5.68-26.16,12-4.5,5.22-24.46,27.82-24.46,27.82l-29.28-26.2-14.74,17.38s35.11,40.66,44.39,44.21c13.38,5.14,32.25-29.28,45.47-41.6s10.14-27.73,4.78-33.62" fill="#0071f2" data-primary="true"/>

<path d="M748.22,368.35c4.69,21,9.36,21.24,2.19,122.17-.56,7.93,3.52,38,2.42,72.86-.85,26.83-3.59,36.5-3.59,36.5H727.48s-10.63-92.49-12.59-110.81-6-84.36-6-84.36h-3.74s-3.28,12.83-13.4,82.55c0,0,3.28,42.55-9.07,109.3H658.81s-5.32-95.47-5.43-110.52,7.39-101.45,9.57-116.67,10.28-23.49,10.28-23.49l64.54-1.52s7.91,12.61,10.45,24" fill="#2f2e41" data-secondary="true"/>

<path d="M660.6,596.56s.66,13.09-1.54,15.26c-3.13,3.1-23,10.43-29.18,12.67-3.16,1.13-5.26,2.9-6.12,5.16a3.07,3.07,0,0,0,2.91,4.06H681s1.93-.75,2.16-4.2c.19-2.92-2.62-11.34-2.62-11.34-.5-1.9.73-21.61.73-21.61Z" fill="#f9b499"/>

<polygon points="660.6 596.56 680.98 601.63 681.28 596.56 660.6 596.56 660.6 596.56" fill="#f7a48b"/>

<path d="M682.05,623.17s-.34,2.7-4.41,2.7H643.86s-7.26-1.71-2.91-5.44c0,0-7.89,1.24-13.09,4.36-3.11,1.87-5.84,2.54-5.51,8.92l.07,1.36h60.84s2-7.8-1.21-11.9" fill="#0071f2" data-primary="true"/>

<path d="M622.42,635.07l.16,3.15h43.93l6.41-3.15.16,3.15h8.38a1.83,1.83,0,0,0,1.86-2l-.06-1.2Z" fill="#2f2e41" data-secondary="true"/>

<path d="M658.13,611.45s-1.29,9,11.71,16.3" fill="none" stroke="#0071f2" stroke-miterlimit="10"/>

<path d="M728.41,600.08s.66,13.1-1.54,15.27c-3.13,3.1-23,10.42-29.18,12.66-3.16,1.14-5.26,2.91-6.13,5.17a3.08,3.08,0,0,0,2.92,4.06h54.34s1.93-.75,2.16-4.21c.19-2.91-2.62-11.33-2.62-11.33-.5-1.9.72-21.62.72-21.62Z" fill="#f9b499"/>

<polygon points="728.41 600.09 748.79 605.16 749.08 600.09 728.41 600.09 728.41 600.09" fill="#f7a48b"/>

<path d="M749.86,626.7s-.34,2.7-4.41,2.7H711.66s-7.25-1.71-2.9-5.44c0,0-7.9,1.24-13.1,4.36-3.1,1.86-5.83,2.54-5.51,8.92l.07,1.36h60.85s2-7.8-1.21-11.9" fill="#0071f2" data-primary="true"/>

<path d="M690.22,638.6l.17,3.15h43.93l6.41-3.15.16,3.15h8.38a1.84,1.84,0,0,0,1.86-2l-.06-1.2Z" fill="#2f2e41" data-secondary="true"/>

<path d="M725.94,615s-1.29,9,11.7,16.31" fill="none" stroke="#0071f2" stroke-miterlimit="10"/>

<path d="M733.52,273.94a51.24,51.24,0,0,1-29.63,4.71c-.59-.09-1.18-.18-1.77-.29-12.13-2.25-26.22-2.13-28.49-21.62s14-29.47,15.37-38.37a22.88,22.88,0,0,0-.09-6.78c-.84-6-2.86-11.23,1.65-16.62,8.81-10.53,17.81-10.05,17.81-10.05s7.85-5.81,17.27,1.18c10.11,7.5,13.24,17.78,11.88,28.65a117.17,117.17,0,0,0-1.1,19.92c.16,3.52,1.07,7.24,4,15s.8,20.36-6.93,24.25" fill="#2f2e41" data-secondary="true"/>

<path d="M703.89,278.65c-.59-.09-1.18-.18-1.77-.29-12.13-2.25-26.22-2.13-28.49-21.62s14-29.47,15.37-38.37a23.23,23.23,0,0,0-.09-6.78c13,1.87,30.17,9.08,36.26,20.31,0,0-3.24,4-.35,10.89,3.27,7.77,10,7.09,7.42,18.81-1.16,5.29-14.57,9.19-28.35,17" opacity="0.2"/>

<path d="M695.82,235.45s1.68,6.67-.66,11.54-5.25,6.43-5.25,6.43,5.05,9.33,17.78,9.08,16.8-9.83,16.8-9.83-3.65-.75-5.23-5.51-.54-13.46-.54-13.46l-22.9,1.75Z" fill="#f9b499"/>

<path d="M671.82,259.14s1.3,9.83,1.59,21.56c.37,14.8-7.25,63.87-7.3,63,0,0,9,5.92,34.11,7.34a87.07,87.07,0,0,0,43.5-8.82s1.48-38.51,4.51-56.43c2.7-15.92,5-23.31,5-23.31L721.64,251l-14.52,10.71-14.4-10.88-20.9,8.28Z" fill="#f4f4f4"/>

<path d="M696.39,241.31s-1,9.56,7.52,9.56,14.48-10.32,14.48-10.32l-22,.76Z" fill="#f7a48b"/>

<path d="M688.68,210.21s1.43,17,2.2,21.44,6.38,15.09,13.53,16,16.25-7.45,19-11.75,4.92-16.93,5.52-21.7-1.21-22.73-17.3-24.72-21.75,11.11-22.94,20.75" fill="#f9b499"/>

<path d="M686.62,252.1a117.9,117.9,0,0,0-4,21.9c-2.24,27,.66,74.42.56,97.22s-.71,39.63-.71,39.63-24.57-.73-25.79-14.2,8.26-40.91,9.39-53c.56-6.05,4.81-86.38,4.81-88.22,9.07-2.56,9.29-2.07,15.7-3.35" fill="#0071f2" data-primary="true"/>

<path d="M714.26,210.82s7.37,2.81,10.9,6.34a7.68,7.68,0,0,1,2.42,5.4l1.62-7.17s-4.61-6.1-14.94-4.57" fill="#f7a48b"/>

<path d="M689.38,218.07A21.51,21.51,0,0,1,692.29,205a15.75,15.75,0,0,1,10.27-7.3l5.81-12.79s-13.87-2.52-20.88,7.55c-12.14,17.46,1.89,25.6,1.89,25.6" fill="#2f2e41" data-secondary="true"/>

<path d="M703.31,201.13c5.09,14.24,22.37,8.29,25.6,15.42,0,0,6.78-10.25-1.07-22.56s-19.47-9.07-19.47-9.07-8.41,6.86-5.06,16.21" fill="#2f2e41" data-secondary="true"/>

<path d="M682.88,347.7s6.31,3.39,22.54,3.39,31-7.14,31-7.14l-.44,7.79S723.74,358,705.89,358s-23.38-3.61-23.38-3.61l.37-6.65Z" fill="#c2c4c6"/>

<path d="M727.56,252.56s2,5.74,1.9,22c-.06,18.22-.66,136.33-.66,136.33s21.65-4.68,25.16-13S744.3,353,743.72,342.19c-.63-11.74,14.14-66.39,14.38-78.35,0-1-30.54-11.28-30.54-11.28" fill="#0071f2" data-primary="true"/>

<path d="M693.59,249.71l10.7,9.89-9.23,7s-7.89-13.66-1.47-16.87" fill="#c2c4c6"/>

<path d="M720.89,250.21l-11.1,9.57,8.45,7.52s8.24-14.43,2.65-17.09" fill="#c2c4c6"/>

<path d="M707.12,261.74s-1.69,76.05-1.69,89.4" fill="none" stroke="#c2c4c6" stroke-miterlimit="10" stroke-width="0.5"/>

<polygon points="598.89 273.5 587.52 263.72 578.08 273.5 587.67 286.73 598.89 273.5 598.89 273.5" fill="#f9b499"/>

<path d="M588.51,259.8c-.31-1.29-5.56-14.55-7.61-17.93s-6.2-2.26-5.91.27,2.63,9.51,2.63,9.51-10.84-8.36-11.87-9.1c-2.75-2-3.81-3.41-6.42-3.29a2.65,2.65,0,0,0-2.37,1.85,2.19,2.19,0,0,0-2.57,1.15c-1,1.57,1,3.31,1,3.31s-1-.31-2.4,1.24c-1.71,1.89.57,3.87.57,3.87a5.11,5.11,0,0,0-3,2.81c-.52,1.28.79,2.27,8.73,8.24,1.51,1.13,7.27,6.78,9.16,8.42,8.44,7.33,11.43,6.63,11.43,6.63s10.66-8.68,8.67-17" fill="#f9b499"/>

<path d="M557,241.11l15.82,11.65m-17.42-7.19L570,256.42m-16.42-5.74,12.91,9.45m10.29-6a8.67,8.67,0,0,0,2.77,9m-6-10.69-8,9.82" fill="none" stroke="#f7a48b" stroke-miterlimit="10"/>

<path d="M670.84,256s-5.2,4.76-4.73,32.94" fill="none" stroke="#0071f2" stroke-miterlimit="10"/>

<g opacity="0.2">

<path d="M665.61,289c-.47-28.08,4.67-33.12,4.89-33.32l.68.73c0,.05-5,5.17-4.57,32.57Z"/>

</g>

<polygon points="651.67 289.16 655.24 286.98 654.96 289.35 651.67 289.16 651.67 289.16" fill="#3f4347"/>

<path d="M696.76,345.49H663.17a2.58,2.58,0,0,1-2.56-2.29l-6.47-54.27a1.9,1.9,0,0,1,1.9-2.12h33.59a2.57,2.57,0,0,1,2.56,2.29l6.47,54.27a1.91,1.91,0,0,1-1.9,2.12" fill="#3f4347"/>

<path d="M693.83,345.49H659a2.58,2.58,0,0,1-2.57-2.29l-5.83-52.11a1.91,1.91,0,0,1,1.9-2.12h34.83a2.59,2.59,0,0,1,2.57,2.3l5.82,52.1a1.9,1.9,0,0,1-1.89,2.12" fill="#5d6166"/>

<path d="M677.67,317.23a4.51,4.51,0,1,0-4.51,4.51,4.51,4.51,0,0,0,4.51-4.51Z" fill="none" stroke="#9ea0a3" stroke-miterlimit="10"/>

<path d="M656.2,293.4a1.37,1.37,0,1,1-1.37-1.37,1.37,1.37,0,0,1,1.37,1.37" fill="#3f4347"/>

<path d="M703.65,345.67a11,11,0,0,1-5.59-.64c-2.32-1.15-2.38-2.44-4.46-3-1.91-.48-5.57.21-7,0a2.66,2.66,0,0,1-2.51-3,2.72,2.72,0,0,1-1.29-3c-.65,0-1.87-1-.91-2.85.25-.49-.59-.32-.68-1.68-.12-2,3.67-3.76,3.67-3.76-2.25.38-3.19-1.62-2.68-2.46s5.31-4,5.95-4.05,4.2,0,5.56.67,5,4.09,5,4.09l10.75,7.84s0,9.19-5.82,11.86" fill="#f9b499"/>

<path d="M692.16,337.85s-5.44-.2-8,1.16m7.33-5s-6.27-.43-8.62,2m8-6.13s-7.2.38-9.13,3.68m3.25-5.84s3-1.91,3.23-2a17.31,17.31,0,0,1,2.8.17" fill="none" stroke="#f7a48b" stroke-miterlimit="10"/>

<path d="M709.48,333.81l9.72,2.94-6.27,13.87L704,345.5s-2.6-9.61,5.48-11.69" fill="#f9b499"/>

<path d="M752.87,263c15.2.11,13.58,16.56,13.79,23.5s2.57,69.36-11,76.46-43-11-43-11l4.69-16.68,20,1.88s1.42-38.14,2.41-49S743,262.92,752.87,263" fill="#0071f2" data-primary="true"/>

<polygon points="714.72 335.4 712.92 350.62 717.08 336.11 714.72 335.4 714.72 335.4" fill="#f7a48b"/>

<path d="M758.1,263.84s-9,0-11.69,7-6.62,67-6.62,67m-22.46-2.59L747.74,339m-35.11,12.92s18.65,12.36,36.32,12.66" fill="none" stroke="#0071f2" stroke-miterlimit="10"/>

<g opacity="0.2">

<path d="M749,365.09h0c-17.61-.3-36.39-12.62-36.58-12.74a.51.51,0,0,1-.14-.7.5.5,0,0,1,.69-.14c.19.12,18.73,12.28,36.05,12.58a.52.52,0,0,1,.49.51A.5.5,0,0,1,749,365.09Zm-1.21-25.58h-.07l-30.41-3.76a.49.49,0,0,1-.43-.56.5.5,0,0,1,.56-.43l21.92,2.71c.37-5.4,4.06-60,6.63-66.83,2.74-7.22,12-7.29,12.17-7.29h0a.5.5,0,0,1,.49.51.49.49,0,0,1-.5.49h0c-.11,0-8.73.07-11.22,6.64s-6.27,62-6.57,66.6l7.49.93a.5.5,0,0,1-.06,1Z"/>

</g>

<rect x="98.82" y="250.78" width="173.94" height="48.77" rx="4.45" fill="#e6e6e6"/>

<path d="M135.48,283.25a10.6,10.6,0,1,1-1.64-14.9h0a10.59,10.59,0,0,1,1.65,14.88Z" fill="#fff"/>

<path d="M133.18,273a50.21,50.21,0,0,1-5.75,6.09l-1.38,1.38-.25.25-.25-.25a33.52,33.52,0,0,1-4.28-4.78,33,33,0,0,1,4.78,4.29h-.48l1.38-1.38A48.73,48.73,0,0,1,133.18,273Z" fill="#2f2e41" data-secondary="true"/>

<path d="M246.94,271.06H144.41a.5.5,0,0,1,0-1H246.94a.5.5,0,0,1,0,1Z" fill="#2f2e41" data-secondary="true"/>

<path d="M218.05,280.26H144.41a.5.5,0,0,1-.5-.5.5.5,0,0,1,.5-.5h73.64a.5.5,0,0,1,.5.5A.5.5,0,0,1,218.05,280.26Z" fill="#2f2e41" data-secondary="true"/>

<line x1="434.11" y1="99.66" x2="536.64" y2="99.66" fill="none" stroke="#fff" stroke-linecap="round" stroke-linejoin="round"/>

<line x1="434.11" y1="108.86" x2="507.75" y2="108.86" fill="none" stroke="#fff" stroke-linecap="round" stroke-linejoin="round"/>

<polygon points="619.81 419.88 435.4 419.88 435.4 286.73 436.4 286.73 436.4 418.88 619.81 418.88 619.81 419.88" fill="#2f2e41" data-secondary="true"/>

</svg>